inDegrees=no
num_controls=7
num_derivatives=13
num_iterations=48
num_multipliers=7
num_parameters=0
num_slacks=7
num_states=26
objective=0.553512
objective_accelerations=0.006252
objective_balance=0.001889
objective_effort=0.013440
objective_height=0.523629
objective_ligament=0.008303
solver_duration=659.172235
status=Solve_Succeeded
success=true
DataType=double
version=3
OpenSimVersion=4.5
endheader
time	/jointset/ground_pelvis/pelvis_tilt/value	/jointset/ground_pelvis/pelvis_tx/value	/jointset/ground_pelvis/pelvis_ty/value	/jointset/hip_l/hip_flexion_l/value	/jointset/hip_l/hip_adduction_l/value	/jointset/hip_l/hip_rotation_l/value	/jointset/back/lumbar_extension/value	/jointset/patellofemoral_l/patellar_flexion_l/value	/jointset/knee_l/knee_flexion_l/value	/jointset/knee_l/knee_adduction_l/value	/jointset/knee_l/knee_rotation_l/value	/jointset/ankle_l/ankle_angle_l/value	/jointset/subtalar_l/subtalar_angle_l/value	/jointset/ground_pelvis/pelvis_tilt/speed	/jointset/ground_pelvis/pelvis_tx/speed	/jointset/ground_pelvis/pelvis_ty/speed	/jointset/hip_l/hip_flexion_l/speed	/jointset/hip_l/hip_adduction_l/speed	/jointset/hip_l/hip_rotation_l/speed	/jointset/back/lumbar_extension/speed	/jointset/patellofemoral_l/patellar_flexion_l/speed	/jointset/knee_l/knee_flexion_l/speed	/jointset/knee_l/knee_adduction_l/speed	/jointset/knee_l/knee_rotation_l/speed	/jointset/ankle_l/ankle_angle_l/speed	/jointset/subtalar_l/subtalar_angle_l/speed	/forceset/tau_hip_flexion_l	/forceset/tau_hip_adduction_l	/forceset/tau_hip_rotation_l	/forceset/tau_knee_flexion_l	/forceset/tau_ankle_angle_l	/forceset/tau_subtalar_angle_l	/forceset/tau_lumbar_extension	lambda_cid13_p0	lambda_cid13_p1	lambda_cid13_p2	lambda_cid13_p3	lambda_cid13_p4	lambda_cid13_p5	lambda_cid14_p0	/jointset/ground_pelvis/pelvis_tilt/accel	/jointset/ground_pelvis/pelvis_tx/accel	/jointset/ground_pelvis/pelvis_ty/accel	/jointset/hip_l/hip_flexion_l/accel	/jointset/hip_l/hip_adduction_l/accel	/jointset/hip_l/hip_rotation_l/accel	/jointset/back/lumbar_extension/accel	/jointset/patellofemoral_l/patellar_flexion_l/accel	/jointset/knee_l/knee_flexion_l/accel	/jointset/knee_l/knee_adduction_l/accel	/jointset/knee_l/knee_rotation_l/accel	/jointset/ankle_l/ankle_angle_l/accel	/jointset/subtalar_l/subtalar_angle_l/accel	gamma_cid13_p0	gamma_cid13_p1	gamma_cid13_p2	gamma_cid13_p3	gamma_cid13_p4	gamma_cid13_p5	gamma_cid14_p0
0.5	0.01537929714631529	0.06216860333039061	0.9316449317094418	0.2569861564088008	-0.1889496555545704	-0.2163595710119877	-0.4281320585610304	0.2256891405304018	0.2256891405304033	0.02538102055463936	-0.02914759275077081	0.02678718815830218	0.1235059516060716	0.04574830567167101	0.06526268896174232	0.01616838024262473	-0.1867966488123811	0.002477219965339957	-0.02683373921946657	-0.09148609497667479	-0.08969462354358886	-0.08969462354354794	-0.01256367531813386	0.003497594662210698	0.04992884066152881	0.02515680718821388	-0.055031944298102	0.08892969892157397	0.00583394478158654	-0.1139728845551782	0.09320927895458955	-0.04316685268315925	0.1409316486445371	-19.98863623931766	23.37276210364037	-5.466193933355428	7.172752677078544	-704.4989290575522	-20.12921095724234	-18.85526476979439	0.2045835638143851	-0.04307024661863702	0.01532886030682055	-0.261763195332503	0.02090376857940195	-0.0219888126894076	0.09096700337909386	-0.1586966646990516	-0.1586966646990599	-0.002354730694532675	0.007781809832534164	-0.1055417807358595	-0.02188240256658715	-5.553678281536503e-10	-2.22261747287991e-09	-7.041745809188267e-11	6.168445681727472e-10	-4.575585114441166e-09	-5.07325451078885e-10	-6.558829645128555e-11
0.51	0.01584685569802348	0.06281906854963817	0.9318073567096695	0.2551053726570676	-0.1889238629148837	-0.2166289294271393	-0.4290421762235146	0.2247844216139271	0.2247844216139419	0.02525524730110875	-0.02911219117859844	0.02728124076788068	0.1237564145915606	0.04775834645543259	0.06483005457333088	0.01631598284809572	-0.1893532940488185	0.002681292488112249	-0.02703666166230843	-0.09052861004374804	-0.09124790015582988	-0.0912479001557851	-0.01259102531049289	0.003583539724385625	0.04888116001755999	0.02493541353273297	-0.05511674635387384	0.08909583361027978	0.005792849325189916	-0.1128735050557075	0.09175969072510216	-0.04327955515311104	0.1411520089417106	-20.4536056119593	23.44305207251425	-5.408786281049065	7.196384497168152	-704.5022983612088	-20.06691255231199	-18.836298671616	0.1984557454993029	-0.04340496049810204	0.01437948668275489	-0.2515940094728952	0.02015713181580617	-0.01925174569299947	0.0994633599219274	-0.1534542080357711	-0.1534542080350442	-0.00293307171436384	0.009123908723617107	-0.1044595187285413	-0.02232392831210706	-5.361874090753268e-10	-2.250681753383118e-09	-9.461797736521748e-11	5.91381619662689e-10	-4.597558326776684e-09	-5.439024789724339e-10	-5.660348599507997e-11
0.52	0.01633436293953111	0.06346519843989273	0.9319712384411535	0.2531992266886364	-0.1888960299224171	-0.2169002786238477	-0.4299424542123362	0.2238642077216198	0.2238642077216252	0.02512919896000624	-0.02907590554493634	0.02776480090851869	0.1240046524242408	0.04973804363293712	0.06439562316314032	0.01645972649388187	-0.1918690921521796	0.00288529051846328	-0.02723189552960827	-0.08951816024391819	-0.09279361871004603	-0.09279361870999726	-0.01261869283115131	0.003674406959108728	0.04783034687354001	0.02471177662632435	-0.05520154840965607	0.08926196829900732	0.0057517538687877	-0.111774125556296	0.09031010249558606	-0.04339225762305261	0.1413723692389033	-20.9200831965995	23.5132147459665	-5.350911291501101	7.226487030745059	-704.525325313007	-20.00925457448797	-18.81690965598369	0.198514842563111	-0.04342965097460419	0.01455706836984943	-0.2535937687172038	0.0208888700951825	-0.02045109758099375	0.1015599767597929	-0.1571850530940586	-0.1571850530940486	-0.00241823635435334	0.008766244342159226	-0.1061682807462502	-0.02233105275216551	-5.08479466770801e-10	-2.280074042644833e-09	-1.184839872449604e-10	5.535013375235338e-10	-4.483910038952013e-09	-6.016513600422064e-10	-4.904042300633795e-11
0.53	0.01684152103618066	0.06410697536694758	0.9321365387857686	0.2512681212954194	-0.1888661583732942	-0.2171735423601112	-0.4308323701245573	0.2229285768030462	0.2229285768030986	0.02500287125119859	-0.02903868792889385	0.02823783961942925	0.1242506425903002	0.05168874884074079	0.0639594886803885	0.01659970032305189	-0.1943452385074464	0.003088900547535962	-0.02741949892420261	-0.08845652710827885	-0.09433084703144874	-0.09433084703142651	-0.01264697793962895	0.003769902159222484	0.04677715596924916	0.02448589171773528	-0.05524809247056731	0.08940922615922382	0.005714570834603133	-0.1107083217358006	0.08891180247080761	-0.04350676971694618	0.1415665540595392	-21.36894528820637	23.58304185514878	-5.295224865020491	7.24838966854278	-704.5267300299846	-19.95178602967245	-18.79709313440659	0.1926244705351662	-0.04374627568205547	0.01362033943011905	-0.2436128134521835	0.02007970443448217	-0.01771213648351688	0.1097392459422889	-0.1517340166272545	-0.1517340166311228	-0.003053449384383896	0.01005909506281435	-0.1049305182903515	-0.02277155096674998	-5.005930879896415e-10	-2.280373309554621e-09	-1.374852122362175e-10	5.395283997173678e-10	-4.461010701713902e-09	-6.173278365823954e-10	-4.679170000227086e-11
